<svg width="24" height="22" viewBox="0 0 24 22" fill="none" xmlns="http://www.w3.org/2000/svg">
<path d="M18.94 16.9616H9.30715L8.7118 14.5819H21.3006L24 3.79235H6.01236L5.06357 0H0V1.41263H3.95976L7.86406 17.018C6.72749 17.2619 5.87272 18.2733 5.87272 19.4808C5.87272 20.8699 7.00367 22 8.39384 22C9.78401 22 10.915 20.8699 10.915 19.4808C10.915 19.084 10.8224 18.7085 10.6581 18.3743H16.6757C16.5115 18.7085 16.4189 19.084 16.4189 19.4808C16.4189 20.8699 17.5499 22 18.94 22C20.3301 22 21.4611 20.8699 21.4611 19.4808C21.4611 18.0918 20.3301 16.9616 18.94 16.9616ZM6.36575 5.20498H22.1893L20.1967 13.1693H8.35836L6.36575 5.20498ZM8.39384 20.5874C7.7832 20.5874 7.28642 20.091 7.28642 19.4808C7.28642 18.8707 7.7832 18.3743 8.39384 18.3743C9.00448 18.3743 9.50126 18.8707 9.50126 19.4808C9.50126 20.091 9.00448 20.5874 8.39384 20.5874ZM18.94 20.5874C18.3294 20.5874 17.8326 20.091 17.8326 19.4808C17.8326 18.8707 18.3294 18.3743 18.94 18.3743C19.5506 18.3743 20.0474 18.8707 20.0474 19.4808C20.0473 20.091 19.5506 20.5874 18.94 20.5874Z" fill="#7E7E7E"/>
</svg>
