<svg width="791" height="161" viewBox="0 0 791 161" fill="none" xmlns="http://www.w3.org/2000/svg">
<path d="M26.18 17.14C26.36 10.84 31.58 5.79999 37.7 5.79999H40.04V3.99999H0.8V5.79999H2.96C9.26 5.79999 14.3 10.84 14.48 17.14V117.04C14.48 123.16 9.26 128.38 2.96 128.38H0.8L0.620001 130.18H40.04V128.38H37.7C31.4 128.38 26.36 123.16 26.18 117.04V17.14ZM44.36 62.68L86.3 14.08C90.98 8.85999 98 5.79999 105.74 5.79999H106.46V3.99999H68.48V5.61999H70.1C75.14 5.61999 77.48 10.12 74.42 14.26L32.12 67.36L91.7 130.9C123.74 164.92 150.56 161.5 162.62 158.8V157C140.48 157 119.96 143.32 105.56 128.02L44.36 62.68ZM121.21 3.99999V5.79999H123.37C129.67 5.79999 134.89 10.84 134.89 17.14V117.04C134.71 123.34 129.67 128.38 123.37 128.38H121.21V130.18H160.45V128.38H158.11C151.81 128.38 146.77 123.16 146.59 117.04V9.75999C148.93 9.75999 159.91 9.4 169.09 9.75999C182.41 10.48 190.87 20.92 191.41 37.3C191.41 41.26 191.05 45.58 190.15 48.1C185.11 64.3 171.43 66.46 162.07 66.82C156.67 66.82 152.53 66.82 152.53 66.82V68.44C159.19 68.44 164.41 74.74 169.09 80.68C170.53 82.3 190.87 111.82 192.85 114.34C198.43 121 207.43 130 224.17 130H234.07V128.2C223.63 128.2 216.97 122.62 209.59 114.7C202.75 107.14 187.09 84.82 187.09 84.82C183.67 79.96 178.09 74.02 174.31 72.22C191.59 72.22 204.91 55.3 204.91 37.84C204.91 16.96 191.41 3.99999 169.63 3.99999H121.21ZM276.817 128.2H274.477C268.177 128.2 263.137 123.16 262.957 117.04V17.14C263.137 10.84 268.357 5.79999 274.477 5.79999H276.817V3.99999H237.577V5.79999H239.737C246.037 5.79999 251.257 10.84 251.257 17.14V117.04C251.257 123.16 246.037 128.2 239.737 128.2H237.577V130H276.817V128.2ZM318.378 44.32C312.618 38.92 311.178 32.44 311.178 27.58C311.178 16.78 319.998 6.88 333.318 6.88C344.478 6.88 353.478 13.9 353.478 25.42H355.278V3.46H348.078C343.218 2.37999 337.458 1.47999 332.598 1.47999C312.078 1.47999 301.098 16.78 301.098 31.9C301.098 38.92 303.438 47.56 310.818 54.22L345.198 86.26C349.698 90.4 352.218 95.98 352.218 103C352.218 117.4 341.238 126.4 328.098 127.12C312.078 128.02 300.378 116.32 302.178 97.6H300.738C297.858 105.7 297.318 117.22 298.578 122.8C305.598 130.18 320.178 132.7 328.998 132.7C349.698 132.7 362.838 118.84 362.838 99.04C362.838 91.66 360.858 83.74 353.658 77.08L318.378 44.32ZM398.403 3.81999C390.663 3.81999 380.043 2.02 376.803 0.579993V23.26H378.603V20.02C378.603 14.26 383.103 9.57999 388.863 9.22H422.883V117.22C422.703 123.34 417.663 128.38 411.363 128.38H409.203L409.023 130.18H448.443V128.38H446.283C439.983 128.38 434.943 123.34 434.763 117.04V9.22H468.783C474.543 9.57999 479.043 14.26 479.043 20.02V23.26H480.843V0.579993C477.423 2.02 466.983 3.81999 459.243 3.81999H398.403ZM534.513 128.2H532.173C525.873 128.2 520.833 123.16 520.653 117.04V17.14C520.833 10.84 526.053 5.79999 532.173 5.79999H534.513V3.99999H495.273V5.79999H497.433C503.733 5.79999 508.953 10.84 508.953 17.14V117.04C508.953 123.16 503.733 128.2 497.433 128.2H495.273V130H534.513V128.2ZM651.493 3.99999V5.79999H654.733C660.853 5.79999 665.713 10.84 665.893 16.78V106.06L567.793 1.47999H566.173C566.173 1.47999 567.793 11.56 567.793 23.8V117.4C567.613 123.52 562.753 128.38 556.633 128.38H553.393L553.213 130.18H590.293V128.38H587.053C580.933 128.38 576.073 123.52 575.893 117.58V27.94L674.173 132.7H675.793C675.793 132.7 673.993 121.18 673.993 109.66V16.6C674.353 10.66 679.213 5.79999 685.153 5.79999H688.573V3.99999H651.493ZM788.843 101.02C783.263 114.7 776.063 124.6 756.983 124.6H731.063V70.6H761.663C766.523 70.78 770.303 74.74 770.303 79.6V82.12H772.103V53.68H770.303V56.38C770.303 61.24 766.343 65.2 761.483 65.2H731.063V9.57999H767.783C773.543 9.93999 777.863 14.62 777.863 20.38V23.44L779.663 23.62V9.03999V6.16V0.75999C776.423 2.19999 765.983 3.99999 758.243 3.99999H705.683V5.79999H708.023C713.963 5.79999 719.363 10.48 719.363 16.24V117.04C719.363 123.16 714.143 128.38 707.843 128.38H705.683V130.18H780.203L790.643 101.02H788.843Z" fill="#945151" fill-opacity="0.03"/>
</svg>
