<?xml version="1.0" encoding="utf-8"?>
<!-- Generator: Adobe Illustrator 24.1.1, SVG Export Plug-In . SVG Version: 6.00 Build 0)  -->
<svg version="1.1" id="Layer_1" xmlns="http://www.w3.org/2000/svg" xmlns:xlink="http://www.w3.org/1999/xlink" x="0px" y="0px"
	 viewBox="0 0 185.8 197.2" style="enable-background:new 0 0 185.8 197.2;" xml:space="preserve">
<style type="text/css">
	.st0{fill:#D4145A;}
</style>
<path class="st0" d="M184.1,97.5c-4.1-5.6-9.1-10.9-14.7-15.4c3.3-6.3,6.3-13.1,8-20.1c0.2-0.6-0.1-1.4-0.7-1.8
	c-5.8-3.4-12.1-5.9-18.5-7.8c0.5-3.8,0.7-7.5,0.7-11.2c0-3.2,0-6.5-0.4-9.7c-0.1-0.6-0.4-1.4-1.1-1.5c-6.9-1-14.3-1.1-21.6,0
	c-1.8-7.1-4.3-14.3-7.8-20.7c-0.3-0.6-1-0.9-1.7-0.7c-6.5,1.9-12.7,5-18.5,8.5c-4.1-5.8-9-11-14.2-15.3c-0.7-0.6-1.4-0.6-2.1,0
	c-5.4,4.4-10.3,9.8-14.5,15.7c-6-3.6-12.4-6.7-19-8.6C57.7,8.7,57,9,56.6,9.6c-3.3,6.1-5.6,12.9-7.4,19.7c-3.5-0.5-7.1-0.7-10.6-0.8
	c-3,0-6.1,0-9.2,0.4C29,29,28.2,29.3,28.1,30c-0.9,7.3-1,15.1,0,22.8c-6.8,1.9-13.5,4.6-19.6,8.3c-0.6,0.3-0.9,1.1-0.7,1.8
	c1.8,6.9,4.7,13.5,8.1,19.7c-3.5,2.9-6.7,6-9.7,9.3c-1.4,1.5-4.1,3.8-4.8,5.8c-0.7,2.1,2.1,4.5,3.2,5.9c3.5,4.1,7.3,8,11.5,11.4
	c-2.5,4.6-4.6,9.4-6.3,14.3c-0.5,1.6-2.3,5.1-1.5,6.9c0.7,1.6,4,2.6,5.3,3.2c4.4,2.1,8.9,3.9,13.5,5.3c-0.5,4-0.7,8.1-0.7,12.1
	c0,2.6-0.4,6.8,0.6,9.2c0.8,1.9,3.7,1.5,5.3,1.6c5.6,0.4,11.4,0.3,17.1-0.5c1.8,7.2,4.4,14.4,7.9,20.9c0.3,0.6,1,0.9,1.6,0.7
	c6.5-1.9,12.7-5,18.6-8.5c4.1,5.7,8.9,10.9,14.1,15.1c0.7,0.6,1.4,0.6,2.1,0c5.3-4.4,10.3-9.7,14.4-15.6c6,3.6,12.4,6.7,19.1,8.6
	c0.6,0.2,1.3-0.1,1.7-0.7c3.2-6.1,5.6-12.9,7.4-19.6c3.7,0.5,7.3,0.7,10.9,0.8c3,0,6,0,8.9-0.4c0.6-0.1,1.3-0.4,1.4-1.1
	c0.9-7.3,1-15.1,0-22.8c6.7-2,13.4-4.6,19.5-8.3c0.6-0.3,0.8-1.1,0.7-1.8c-1.8-6.9-4.7-13.5-8-19.7c5.5-4.4,10.4-9.6,14.5-15.1
	C184.7,99,184.7,98.2,184.1,97.5z M115.8,158.3c-4.4-2.5-8.4-5.9-11.5-10.1c-6.2-8.3-8.9-19-10-29.4c0-0.3-0.1-0.5-0.2-0.7
	c0-4,0.1-7.9,0.1-11.9c0-0.6,0-1.1,0-1.7c0.6-0.1,1.1-0.4,1.6-0.7c2.8,3,5.7,6,8.5,9.1c6.6,8.6,12.1,18.8,13.1,29.9
	C117.8,148.1,117.2,153.3,115.8,158.3z M68.2,142.9c1-11,6.4-21.1,12.9-29.6c0.2-0.3,0.3-0.6,0.4-0.9c2.4-2.5,4.7-4.9,7.1-7.4
	c0.4-0.4,0.8-0.9,1.3-1.3c0.4,0.3,0.9,0.6,1.4,0.7c0,5.4-0.1,10.8-0.1,16.1c-2.2,14.7-8.1,29-20.9,36.6c-0.2,0.1-0.4,0.2-0.6,0.4
	C68.3,152.8,67.7,147.9,68.2,142.9z M69.7,39.1c4.7,2.7,8.9,6.3,12.2,11c5.8,8.2,8.4,18.5,9.4,28.6c0,4-0.1,8-0.1,12.1
	c0,0.7,0,1.4,0,2.1c-0.5,0.1-0.9,0.4-1.3,0.6c-3.1-3.3-6.2-6.6-9.3-9.9c0-0.1-0.1-0.1-0.1-0.2c-6.4-8.6-11.8-18.9-12.4-30.1
	C67.8,48.3,68.4,43.6,69.7,39.1z M111.5,28.5c1.4,2.7,2.6,5.5,3.6,8.4c-6.7,3.9-12.4,9.4-16.4,16.8c-1.8,3.5-3.3,7.1-4.4,10.9
	c0-6.7,0.1-13.5,0.2-20.2c0-1.7,0-3.4,0-5c0.9-0.5,1.6-1.5,1.6-2.8c0-0.2,0-0.3,0-0.5c4.9-3.7,8.9-8.5,11.6-14.1
	C109.1,24.2,110.4,26.3,111.5,28.5z M117.3,55.2c-1.2,10.8-6.5,20.5-12.8,28.8c-2.5,2.6-5,5.3-7.5,7.9c-0.4,0.4-0.9,0.9-1.3,1.3
	c-0.4-0.3-0.9-0.4-1.4-0.6c0-4,0.1-8,0.1-12c0.1-0.2,0.1-0.4,0.2-0.6c1-9.9,3.5-20.1,9-28.4c3.3-5,7.7-8.9,12.6-11.8
	C117.3,44.8,117.8,50,117.3,55.2z M138,72.3c3.8,0.1,7.5,0.7,11.1,1.8c-2.7,5.3-6.3,9.9-11,13.5c-7.2,5.4-15.9,8.1-24.5,9.2
	c-4.3,0-8.6,0-13,0c-0.7,0-1.4,0-2.1,0c-0.2-0.5-0.4-1-0.6-1.5c2.7-2.8,5.4-5.7,8.1-8.5c0.1-0.1,0.2-0.1,0.3-0.2
	C115.2,78.8,126,72.5,138,72.3z M90.2,37.2c0.1,1,0.7,1.7,1.5,2.2c-0.1,8.2-0.1,16.3-0.2,24.5c-3-10.2-8.3-19.4-17.1-25.5
	c-1.2-0.8-2.4-1.6-3.7-2.3c1-2.9,2.3-5.7,3.7-8.3c0.9-1.7,1.9-3.4,3-5.1C80.4,28.6,84.8,33.5,90.2,37.2z M86.5,94
	c0.5,0.5,1,1,1.4,1.5c-0.2,0.4-0.4,0.9-0.6,1.4c-4.4,0-8.8,0-13.3,0c-9.3-1.2-18.6-4-26.2-9.9c-4.5-3.5-7.9-7.9-10.5-13
	c3.7-1.1,7.6-1.8,11.5-1.6c10.8,0.4,20.9,6,29.4,12.9C81,88.2,83.7,91.1,86.5,94z M49.7,92c3.3,2.1,6.9,3.7,10.5,4.9
	c-6,0-12,0-17.9,0c-1.6,0-3.2,0-4.8,0c-0.5-1-1.4-1.7-2.6-1.7c-0.2,0-0.4,0-0.5,0.1C30.7,90,26,85.8,20.4,82.9
	c1.7-1.3,3.5-2.5,5.3-3.6c2.8-1.7,5.8-3.2,8.9-4.4C38.1,81.8,43,87.8,49.7,92z M34.3,101.6c0.2,0,0.4,0.1,0.5,0.1
	c1.2,0,2.1-0.6,2.7-1.7c7.6,0,15.2,0,22.8,0c-9.9,3.2-18.7,9-24.6,18.6c-0.7,1.1-1.3,2.2-1.9,3.4c-2.2-0.9-4.4-1.9-6.5-3.1
	c-2.1-1.2-4.1-2.5-6-3.9C26.6,111.8,31,107.1,34.3,101.6z M50.2,107.9c7.4-4.7,16-6.9,24.5-7.8c0.1,0,0.3,0,0.4-0.1
	c3.6,0,7.1,0,10.7,0c0.5,0,1,0,1.5,0c0.1,0.5,0.3,1,0.5,1.4c-3.7,3.8-7.4,7.7-11,11.5c-7,5.6-15.1,10.2-23.9,11.5
	c-5.5,0.9-11,0.2-16.2-1.4C39.9,116.8,44.4,111.6,50.2,107.9z M90.9,133.7c0,6.2-0.1,12.5-0.1,18.7c0,1.7,0,3.4,0,5
	c-0.9,0.5-1.6,1.5-1.6,2.8c0,0.1,0,0.2,0,0.3c-4.9,3.8-8.8,8.7-11.6,14.4c-1.2-1.9-2.4-3.9-3.4-5.8c-1.5-2.8-2.7-5.6-3.7-8.6
	C80.7,154.6,87.2,145,90.9,133.7z M93.7,157.5c0.1-8.3,0.1-16.6,0.2-24.9c3,10.7,8.5,20.4,17.7,26.7c1,0.7,2.1,1.4,3.2,2
	c-1,2.7-2.1,5.3-3.5,7.8c-1,1.9-2.1,3.8-3.3,5.7c-3.1-5.8-7.5-10.6-12.8-14.2c0-0.1,0-0.2,0-0.3C95.3,159.1,94.6,158,93.7,157.5z
	 M106.2,110.6c-2.4-2.6-4.9-5.2-7.3-7.8c-0.4-0.4-0.8-0.8-1.1-1.2c0.3-0.5,0.5-1.1,0.6-1.7c3.6,0,7.2,0,10.7,0
	c0.2,0.3,0.6,0.4,1,0.4c9.4,1.1,18.9,3.7,26.8,9.5c4.8,3.5,8.5,8.1,11.2,13.4c-4.4,1.3-9,1.9-13.6,1.4
	C124,123.6,114.3,117.7,106.2,110.6C106.2,110.6,106.2,110.6,106.2,110.6z M135.1,105c-3.6-2.1-7.5-3.8-11.4-5c6.8,0,13.6,0,20.3,0
	c1.6,0,3.2,0,4.8,0c0.5,1,1.4,1.6,2.5,1.6c3.5,5.4,8.3,9.8,13.8,12.8c-1.9,1.4-3.8,2.7-5.8,3.9c-2.7,1.6-5.5,3-8.3,4
	C147.3,115.2,142.1,109.1,135.1,105z M150.8,95.3c-0.9,0.2-1.6,0.8-2,1.6c-7.4,0-14.8,0-22.1,0c9.1-3.2,17.3-8.6,22.9-17.4
	c0.9-1.4,1.7-2.8,2.4-4.3c4.3,1.7,8.5,4,12.4,6.8C158.9,85.2,154.2,89.7,150.8,95.3z M174.4,62.4c-1.7,6.2-4.3,12.2-7.3,17.9
	c-4.3-3.2-9-5.9-13.9-7.8c2.3-5.3,3.8-11,4.7-16.9C163.6,57.2,169.2,59.4,174.4,62.4z M154.1,32.7c0.6,0.1,1.2,0.1,1.8,0.2
	c0.6,6.6,0.4,13.5-0.5,20.2c0,0.2-0.1,0.4-0.1,0.5c-0.5,3.7-1.3,7.3-2.3,10.8c-0.7,2.4-1.5,4.7-2.5,7c-4-1.3-8.2-2.1-12.4-2.1
	c-7.5,0.1-14.6,2.5-21.1,6.1c4.4-4.6,8.7-9.1,13.1-13.7c1.1-1.2,2.3-2.4,3.4-3.5c1,0.3,2.2,0.1,3-0.8c1.2-1.2,1.2-3.3,0-4.5
	c-1.2-1.2-3.1-1.3-4.3,0c-0.8,0.9-1,2-0.8,3.1c-5.5,5.8-11.1,11.6-16.6,17.3c2.4-4.8,4.2-9.8,5.1-15.2c1.1-6.7,0.6-13.3-1.1-19.6
	c2.2-1.1,4.5-2,6.9-2.8c6.9-2.2,14.2-3.1,21.4-3.2C149.3,32.5,151.7,32.5,154.1,32.7z M133.1,30.4c-5.3,1-10.5,2.7-15.3,5.1
	c-0.6-1.8-1.3-3.7-2.1-5.4c-1.6-3.6-3.6-7.1-5.8-10.5c5.2-3.1,10.7-5.9,16.4-7.7C129.2,17.7,131.4,24.1,133.1,30.4z M92.8,4.8
	c4.8,4.1,9.3,9.1,13.1,14.4c-2.6,5.8-6.5,10.8-11.5,14.5c-0.4-0.2-0.8-0.3-1.2-0.3c-0.7,0-1.4,0.3-1.9,0.8
	c-5.1-3.6-9.2-8.5-11.9-14.4C83.2,14.2,87.8,9.1,92.8,4.8z M58.6,12.2c5.9,1.8,11.6,4.6,16.9,7.8c-2,3-3.7,6.1-5.2,9.3
	c-0.8,1.8-1.6,3.6-2.2,5.4c-5-2.4-10.4-4-15.9-5C53.8,23.7,55.8,17.7,58.6,12.2z M60.2,34.9c2.4,0.8,4.7,1.7,6.9,2.8
	c-1.7,5.9-2.4,12-1.7,18.2c0.7,6,2.6,11.6,5.2,16.9c-4.3-4.5-8.5-9.1-12.8-13.6c-1.1-1.2-2.2-2.4-3.4-3.6c0.3-1.1,0.1-2.3-0.7-3.1
	c-1.1-1.2-3.1-1.2-4.3,0c-1.2,1.2-1.2,3.3,0,4.5c0.8,0.9,1.9,1.1,3,0.8c5.5,5.9,11,11.8,16.5,17.6c-10.1-5.5-21.3-7.9-32.7-4.3
	c-0.1,0-0.1,0-0.2,0.1c-1.1-2.4-1.9-4.9-2.7-7.5c-2-7.3-2.8-15-2.9-22.6c0-2.4,0.1-4.8,0.2-7.3c0-0.6,0.1-1.3,0.1-1.9
	C40.6,30.8,50.9,31.9,60.2,34.9z M33.2,72.1c-5.4,2.1-10.4,5.1-15,8.6c-3-5.5-5.5-11.4-7.3-17.5c5.5-3.2,11.5-5.6,17.6-7.3
	C29.5,61.6,31,67,33.2,72.1z M5.8,100.5c-0.5-0.5-0.9-1.3-1.4-1.8c0,0,0,0,0,0C8.2,93.6,12.8,89,17.8,85c5.8,2.6,10.7,6.9,14.4,12.3
	c-0.1,0.4-0.2,0.8-0.2,1.2c0,0.4,0.1,0.7,0.2,1c-3.3,5.8-7.9,10.4-13.5,13.6c-2.8-2.2-5.5-4.6-8-7.2C8.9,104.1,7.3,102.4,5.8,100.5z
	 M11.2,134.7c0.2-1.7,1.3-4,1.8-5.4c1.5-4.3,3.4-8.5,5.5-12.5c4.4,3.2,9.1,6,14,7.9c-2.3,5.3-3.9,11-4.8,16.8
	C22,139.9,16.3,137.7,11.2,134.7z M36.8,164.8c-1.7,0-3.4-0.1-5.1-0.2c-0.4,0-1.2-0.3-1.9-0.3c0.1-1.5-0.3-3.1-0.3-4.7
	c-0.2-5.2,0.1-10.5,0.8-15.7c0-0.1,0-0.1,0-0.2c0.9-6,2.4-11.8,4.7-17.3c0.1-0.2,0.2-0.4,0.3-0.6c11.3,3.6,22.3,1.7,32.4-3.5
	c-4.1,4.3-8.2,8.6-12.3,12.9c-1.1,1.2-2.3,2.4-3.4,3.5c-1-0.3-2.1-0.1-3,0.8c-1.1,1.2-1.2,3.2-0.1,4.4c0.1,0.7,0.5,1.3,1.4,1.3
	c0.4,0,0.6-0.1,0.9-0.3c0.8,0,1.5-0.3,2.1-0.9c0.8-0.9,1-2,0.8-3.1c5.8-6,11.5-12.1,17.3-18.1c-2.8,5.4-5,11.2-5.8,17.4
	c-0.9,6.4-0.3,12.7,1.4,18.7C57.6,163.5,46.9,164.9,36.8,164.8z M52.4,166.7c5-0.9,9.9-2.3,14.6-4.4c0.3-0.1,0.6-0.3,0.9-0.4
	c0.6,1.9,1.4,3.8,2.3,5.6c1.6,3.5,3.6,7,5.8,10.3c-5.2,3.1-10.8,5.9-16.5,7.7C56.3,179.6,54.1,173.2,52.4,166.7z M92.8,192.3
	c-4.9-4.2-9.4-9.2-13.2-14.6c2.5-5.9,6.4-10.9,11.3-14.7c0.4,0.2,0.9,0.4,1.4,0.4c0.5,0,0.9-0.1,1.3-0.3c5.4,3.5,9.7,8.5,12.6,14.5
	C102.3,183.1,97.7,188.1,92.8,192.3z M127,185.1c-5.9-1.8-11.6-4.6-17-7.8c2.1-3.2,3.9-6.5,5.5-9.8c0.7-1.6,1.4-3.2,2-4.8
	c5,2.5,10.5,4.1,16,5C131.8,173.7,129.7,179.6,127,185.1z M135.6,165c-0.2,0-0.3-0.1-0.5-0.1c-3.2-0.5-6.3-1.3-9.4-2.2
	c-2.5-0.8-5-1.8-7.4-3c1.9-6.3,2.5-12.9,1.6-19.6c-0.8-5.6-2.7-10.9-5.1-15.9c4.2,4.5,8.5,9,12.7,13.5c1.1,1.2,2.2,2.4,3.3,3.6
	c-0.3,1.1-0.1,2.3,0.7,3.1c1.2,1.2,3.1,1.2,4.3,0c1.2-1.2,1.2-3.3,0-4.5c-0.8-0.9-1.9-1.1-3-0.8c-5.4-5.8-10.8-11.5-16.2-17.3
	c4.8,2.7,9.9,4.7,15.2,5.6c6,1,11.9,0.4,17.5-1.4c1,2.3,1.9,4.8,2.6,7.3c2.1,7.4,2.9,15,3,22.7c0,2.5,0,5.1-0.2,7.6
	c0,0.6-0.1,1.3-0.2,1.9C148.5,166.2,142,166,135.6,165z M174.5,134.2c-5.5,3.2-11.4,5.5-17.4,7.3c-1-5.7-2.5-11.3-4.8-16.4
	c1.9-0.7,3.7-1.5,5.5-2.5c3.2-1.7,6.4-3.7,9.4-6C170.2,122.2,172.8,128.1,174.5,134.2z M167.8,112.4c-5.6-2.8-10.3-6.9-13.9-12.2
	c0.3-0.5,0.5-1.1,0.5-1.7c0-0.8-0.3-1.5-0.8-2.1c3.4-5.2,7.9-9.4,13.2-12.3c0.1,0.1,0.3,0.1,0.4,0.1c5.3,4.2,10,9.2,14,14.4
	C177.4,103.7,172.8,108.4,167.8,112.4z"/>
</svg>
