<svg width="294" height="36" viewBox="0 0 294 36" fill="none" xmlns="http://www.w3.org/2000/svg">
<path d="M123.177 3.91999C123.217 2.51999 124.377 1.39999 125.737 1.39999H126.257V0.99999H117.537V1.39999H118.017C119.417 1.39999 120.537 2.51999 120.577 3.91999V26.12C120.577 27.48 119.417 28.64 118.017 28.64H117.537L117.497 29.04H126.257V28.64H125.737C124.337 28.64 123.217 27.48 123.177 26.12V3.91999ZM127.217 14.04L136.537 3.23999C137.577 2.07999 139.137 1.39999 140.857 1.39999H141.017V0.99999H132.577V1.35999H132.937C134.057 1.35999 134.577 2.35999 133.897 3.27999L124.497 15.08L137.737 29.2C144.857 36.76 150.817 36 153.497 35.4V35C148.577 35 144.017 31.96 140.817 28.56L127.217 14.04ZM144.295 0.99999V1.39999H144.775C146.175 1.39999 147.335 2.51999 147.335 3.91999V26.12C147.295 27.52 146.175 28.64 144.775 28.64H144.295V29.04H153.015V28.64H152.495C151.095 28.64 149.975 27.48 149.935 26.12V2.27999C150.455 2.27999 152.895 2.19999 154.935 2.27999C157.895 2.43999 159.775 4.75999 159.895 8.39999C159.895 9.27999 159.815 10.24 159.615 10.8C158.495 14.4 155.455 14.88 153.375 14.96C152.175 14.96 151.255 14.96 151.255 14.96V15.32C152.735 15.32 153.895 16.72 154.935 18.04C155.255 18.4 159.775 24.96 160.215 25.52C161.455 27 163.455 29 167.175 29H169.375V28.6C167.055 28.6 165.575 27.36 163.935 25.6C162.415 23.92 158.935 18.96 158.935 18.96C158.175 17.88 156.935 16.56 156.095 16.16C159.935 16.16 162.895 12.4 162.895 8.51999C162.895 3.87999 159.895 0.99999 155.055 0.99999H144.295ZM178.874 28.6H178.354C176.954 28.6 175.834 27.48 175.794 26.12V3.91999C175.834 2.51999 176.994 1.39999 178.354 1.39999H178.874V0.99999H170.154V1.39999H170.634C172.034 1.39999 173.194 2.51999 173.194 3.91999V26.12C173.194 27.48 172.034 28.6 170.634 28.6H170.154V29H178.874V28.6ZM188.11 9.95999C186.83 8.75999 186.51 7.31999 186.51 6.23999C186.51 3.83999 188.47 1.63999 191.43 1.63999C193.91 1.63999 195.91 3.19999 195.91 5.75999H196.31V0.879992H194.71C193.63 0.63999 192.35 0.43999 191.27 0.43999C186.71 0.43999 184.27 3.83999 184.27 7.19999C184.27 8.75999 184.79 10.68 186.43 12.16L194.07 19.28C195.07 20.2 195.63 21.44 195.63 23C195.63 26.2 193.19 28.2 190.27 28.36C186.71 28.56 184.11 25.96 184.51 21.8H184.19C183.55 23.6 183.43 26.16 183.71 27.4C185.27 29.04 188.51 29.6 190.47 29.6C195.07 29.6 197.99 26.52 197.99 22.12C197.99 20.48 197.55 18.72 195.95 17.24L188.11 9.95999ZM205.893 0.959991C204.173 0.959991 201.813 0.559991 201.093 0.23999V5.27999H201.493V4.55999C201.493 3.27999 202.493 2.23999 203.773 2.15999H211.333V26.16C211.293 27.52 210.173 28.64 208.773 28.64H208.293L208.253 29.04H217.013V28.64H216.533C215.133 28.64 214.013 27.52 213.973 26.12V2.15999H221.533C222.813 2.23999 223.813 3.27999 223.813 4.55999V5.27999H224.213V0.23999C223.453 0.559991 221.133 0.959991 219.413 0.959991H205.893ZM236.14 28.6H235.62C234.22 28.6 233.1 27.48 233.06 26.12V3.91999C233.1 2.51999 234.26 1.39999 235.62 1.39999H236.14V0.99999H227.42V1.39999H227.9C229.3 1.39999 230.46 2.51999 230.46 3.91999V26.12C230.46 27.48 229.3 28.6 227.9 28.6H227.42V29H236.14V28.6ZM262.135 0.99999V1.39999H262.855C264.215 1.39999 265.295 2.51999 265.335 3.83999V23.68L243.535 0.43999H243.175C243.175 0.43999 243.535 2.67999 243.535 5.39999V26.2C243.495 27.56 242.415 28.64 241.055 28.64H240.335L240.295 29.04H248.535V28.64H247.815C246.455 28.64 245.375 27.56 245.335 26.24V6.31999L267.175 29.6H267.535C267.535 29.6 267.135 27.04 267.135 24.48V3.79999C267.215 2.47999 268.295 1.39999 269.615 1.39999H270.375V0.99999H262.135ZM292.657 22.56C291.417 25.6 289.817 27.8 285.577 27.8H279.817V15.8H286.617C287.697 15.84 288.537 16.72 288.537 17.8V18.36H288.937V12.04H288.537V12.64C288.537 13.72 287.657 14.6 286.577 14.6H279.817V2.23999H287.977C289.257 2.31999 290.217 3.35999 290.217 4.63999V5.31999L290.617 5.35999V2.11999V1.47999V0.27999C289.897 0.59999 287.577 0.99999 285.857 0.99999H274.177V1.39999H274.697C276.017 1.39999 277.217 2.43999 277.217 3.71999V26.12C277.217 27.48 276.057 28.64 274.657 28.64H274.177V29.04H290.737L293.057 22.56H292.657Z" fill="white"/>
<path d="M74.0679 12C74.0679 12.03 74.1279 12.01 74.2479 11.94C74.3679 11.86 74.4779 11.72 74.5779 11.52C74.6779 11.31 74.7279 11.005 74.7279 10.605V7.2H69.0879V10.605C69.0879 11.005 69.1379 11.31 69.2379 11.52C69.3379 11.72 69.4479 11.855 69.5679 11.925C69.6879 11.995 69.7479 12.02 69.7479 12H67.3629C67.3629 12.03 67.4229 12.01 67.5429 11.94C67.6629 11.86 67.7679 11.72 67.8579 11.52C67.9579 11.31 68.0079 11.005 68.0079 10.605V3.075C68.0079 2.675 67.9579 2.375 67.8579 2.175C67.7679 1.965 67.6629 1.825 67.5429 1.755C67.4229 1.685 67.3629 1.66 67.3629 1.68H69.7479C69.7479 1.66 69.6879 1.685 69.5679 1.755C69.4479 1.825 69.3379 1.965 69.2379 2.175C69.1379 2.375 69.0879 2.675 69.0879 3.075V6.54H74.7279V3.075C74.7279 2.675 74.6779 2.375 74.5779 2.175C74.4779 1.965 74.3679 1.825 74.2479 1.755C74.1279 1.685 74.0679 1.66 74.0679 1.68H76.4529C76.4529 1.65 76.3929 1.675 76.2729 1.755C76.1529 1.825 76.0429 1.965 75.9429 2.175C75.8529 2.375 75.8079 2.675 75.8079 3.075V10.605C75.8079 11.005 75.8579 11.31 75.9579 11.52C76.0579 11.72 76.1679 11.855 76.2879 11.925C76.4079 11.995 76.4679 12.02 76.4679 12H74.0679ZM78.4444 6.96C78.4444 5.9 78.6694 4.955 79.1194 4.125C79.5794 3.295 80.2194 2.65 81.0394 2.19C81.8694 1.73 82.8244 1.5 83.9044 1.5C84.8044 1.5 85.6444 1.7 86.4244 2.1C87.2144 2.49 87.8444 3.08 88.3144 3.87C88.7944 4.66 89.0344 5.61 89.0344 6.72C89.0344 7.78 88.8044 8.725 88.3444 9.555C87.8944 10.385 87.2544 11.03 86.4244 11.49C85.6044 11.95 84.6544 12.18 83.5744 12.18C82.6744 12.18 81.8294 11.985 81.0394 11.595C80.2594 11.195 79.6294 10.6 79.1494 9.81C78.6794 9.02 78.4444 8.07 78.4444 6.96ZM87.8344 6.945C87.8344 6.035 87.6444 5.215 87.2644 4.485C86.8944 3.745 86.3794 3.17 85.7194 2.76C85.0694 2.34 84.3344 2.13 83.5144 2.13C82.7644 2.13 82.0944 2.32 81.5044 2.7C80.9244 3.08 80.4694 3.62 80.1394 4.32C79.8094 5.01 79.6444 5.815 79.6444 6.735C79.6444 7.645 79.8294 8.47 80.1994 9.21C80.5794 9.94 81.0944 10.515 81.7444 10.935C82.4044 11.345 83.1444 11.55 83.9644 11.55C84.7144 11.55 85.3794 11.36 85.9594 10.98C86.5494 10.6 87.0094 10.065 87.3394 9.375C87.6694 8.675 87.8344 7.865 87.8344 6.945ZM99.7198 12C99.8398 11.98 99.9698 11.875 100.11 11.685C100.25 11.485 100.32 11.12 100.32 10.59V3.09L96.3898 12.165L92.3998 3.105V10.515C92.3998 11.055 92.4848 11.435 92.6548 11.655C92.8348 11.865 92.9948 11.98 93.1348 12H90.9148C91.0648 11.98 91.2298 11.87 91.4098 11.67C91.5898 11.46 91.6798 11.075 91.6798 10.515V3C91.6798 2.52 91.5948 2.19 91.4248 2.01C91.2548 1.83 91.0848 1.72 90.9148 1.68H92.9398L96.6148 10.065L100.23 1.68H102.045C101.915 1.7 101.775 1.805 101.625 1.995C101.475 2.185 101.4 2.535 101.4 3.045V10.65C101.4 11.15 101.475 11.495 101.625 11.685C101.775 11.875 101.915 11.98 102.045 12H99.7198ZM104.35 12C104.35 12.03 104.41 12.01 104.53 11.94C104.65 11.86 104.755 11.71 104.845 11.49C104.945 11.26 104.995 10.93 104.995 10.5V3.135C104.995 2.725 104.945 2.415 104.845 2.205C104.755 1.985 104.65 1.835 104.53 1.755C104.41 1.675 104.35 1.65 104.35 1.68H109.78V3.18C109.6 2.58 109.06 2.28 108.16 2.28H106.075V6.54H108.655C108.855 6.54 109.025 6.51 109.165 6.45C109.305 6.38 109.41 6.31 109.48 6.24C109.55 6.17 109.59 6.125 109.6 6.105V7.56C109.59 7.54 109.55 7.495 109.48 7.425C109.41 7.355 109.305 7.29 109.165 7.23C109.035 7.17 108.87 7.14 108.67 7.14H106.075V11.4H108.415C108.865 11.4 109.25 11.31 109.57 11.13C109.9 10.94 110.135 10.7 110.275 10.41L110.005 12H104.35ZM8.80173 28.085C8.42173 28.395 7.92673 28.655 7.31673 28.865C6.70673 29.075 6.09173 29.18 5.47173 29.18C4.54173 29.18 3.67673 28.965 2.87673 28.535C2.07673 28.105 1.43173 27.485 0.941725 26.675C0.461726 25.865 0.221725 24.915 0.221725 23.825C0.221725 22.805 0.441725 21.89 0.881725 21.08C1.33173 20.27 1.96673 19.64 2.78673 19.19C3.61673 18.73 4.58173 18.5 5.68173 18.5C6.85173 18.5 7.89173 18.755 8.80173 19.265V20.93C8.49173 20.38 8.04173 19.945 7.45173 19.625C6.86173 19.295 6.23173 19.13 5.56173 19.13C4.71173 19.13 3.97173 19.33 3.34173 19.73C2.72173 20.13 2.24673 20.68 1.91673 21.38C1.58673 22.07 1.42173 22.845 1.42173 23.705C1.42173 24.675 1.60673 25.52 1.97673 26.24C2.35673 26.96 2.86673 27.515 3.50673 27.905C4.14673 28.285 4.86173 28.475 5.65173 28.475C6.92173 28.475 7.97173 28.105 8.80173 27.365V28.085ZM10.7832 23.96C10.7832 22.9 11.0082 21.955 11.4582 21.125C11.9182 20.295 12.5582 19.65 13.3782 19.19C14.2082 18.73 15.1632 18.5 16.2432 18.5C17.1432 18.5 17.9832 18.7 18.7632 19.1C19.5532 19.49 20.1832 20.08 20.6532 20.87C21.1332 21.66 21.3732 22.61 21.3732 23.72C21.3732 24.78 21.1432 25.725 20.6832 26.555C20.2332 27.385 19.5932 28.03 18.7632 28.49C17.9432 28.95 16.9932 29.18 15.9132 29.18C15.0132 29.18 14.1682 28.985 13.3782 28.595C12.5982 28.195 11.9682 27.6 11.4882 26.81C11.0182 26.02 10.7832 25.07 10.7832 23.96ZM20.1732 23.945C20.1732 23.035 19.9832 22.215 19.6032 21.485C19.2332 20.745 18.7182 20.17 18.0582 19.76C17.4082 19.34 16.6732 19.13 15.8532 19.13C15.1032 19.13 14.4332 19.32 13.8432 19.7C13.2632 20.08 12.8082 20.62 12.4782 21.32C12.1482 22.01 11.9832 22.815 11.9832 23.735C11.9832 24.645 12.1682 25.47 12.5382 26.21C12.9182 26.94 13.4332 27.515 14.0832 27.935C14.7432 28.345 15.4832 28.55 16.3032 28.55C17.0532 28.55 17.7182 28.36 18.2982 27.98C18.8882 27.6 19.3482 27.065 19.6782 26.375C20.0082 25.675 20.1732 24.865 20.1732 23.945ZM26.1036 29.18C25.5836 29.18 25.0836 29.11 24.6036 28.97C24.1236 28.82 23.6936 28.615 23.3136 28.355V26.54C23.5736 27.21 23.9686 27.72 24.4986 28.07C25.0386 28.41 25.5986 28.58 26.1786 28.58C26.7586 28.58 27.2436 28.39 27.6336 28.01C28.0236 27.62 28.2186 27.14 28.2186 26.57C28.2186 26.19 28.1386 25.865 27.9786 25.595C27.8286 25.325 27.5836 25.075 27.2436 24.845C26.9036 24.605 26.4236 24.34 25.8036 24.05C24.9336 23.65 24.2986 23.235 23.8986 22.805C23.5086 22.365 23.3136 21.835 23.3136 21.215C23.3136 20.685 23.4386 20.215 23.6886 19.805C23.9486 19.385 24.2936 19.065 24.7236 18.845C25.1636 18.615 25.6436 18.5 26.1636 18.5C26.6136 18.5 27.0536 18.565 27.4836 18.695C27.9136 18.815 28.3136 18.99 28.6836 19.22V20.84C28.4436 20.29 28.0786 19.865 27.5886 19.565C27.1086 19.255 26.6186 19.1 26.1186 19.1C25.5486 19.1 25.0886 19.285 24.7386 19.655C24.3886 20.025 24.2136 20.465 24.2136 20.975C24.2136 21.345 24.3186 21.665 24.5286 21.935C24.7386 22.195 24.9936 22.415 25.2936 22.595C25.6036 22.775 26.0336 22.995 26.5836 23.255C27.1436 23.525 27.6036 23.775 27.9636 24.005C28.3236 24.235 28.6236 24.535 28.8636 24.905C29.1036 25.275 29.2236 25.725 29.2236 26.255C29.2236 26.855 29.0786 27.375 28.7886 27.815C28.5086 28.255 28.1286 28.595 27.6486 28.835C27.1786 29.065 26.6636 29.18 26.1036 29.18ZM39.9834 29C40.1034 28.98 40.2334 28.875 40.3734 28.685C40.5134 28.485 40.5834 28.12 40.5834 27.59V20.09L36.6534 29.165L32.6634 20.105V27.515C32.6634 28.055 32.7484 28.435 32.9184 28.655C33.0984 28.865 33.2584 28.98 33.3984 29H31.1784C31.3284 28.98 31.4934 28.87 31.6734 28.67C31.8534 28.46 31.9434 28.075 31.9434 27.515V20C31.9434 19.52 31.8584 19.19 31.6884 19.01C31.5184 18.83 31.3484 18.72 31.1784 18.68H33.2034L36.8784 27.065L40.4934 18.68H42.3084C42.1784 18.7 42.0384 18.805 41.8884 18.995C41.7384 19.185 41.6634 19.535 41.6634 20.045V27.65C41.6634 28.15 41.7384 28.495 41.8884 28.685C42.0384 28.875 42.1784 28.98 42.3084 29H39.9834ZM44.6139 29C44.6139 29.03 44.6739 29.01 44.7939 28.94C44.9139 28.86 45.0189 28.71 45.1089 28.49C45.2089 28.26 45.2589 27.93 45.2589 27.5V20.135C45.2589 19.725 45.2089 19.415 45.1089 19.205C45.0189 18.985 44.9139 18.835 44.7939 18.755C44.6739 18.675 44.6139 18.65 44.6139 18.68H50.0439V20.18C49.8639 19.58 49.3239 19.28 48.4239 19.28H46.3389V23.54H48.9189C49.1189 23.54 49.2889 23.51 49.4289 23.45C49.5689 23.38 49.6739 23.31 49.7439 23.24C49.8139 23.17 49.8539 23.125 49.8639 23.105V24.56C49.8539 24.54 49.8139 24.495 49.7439 24.425C49.6739 24.355 49.5689 24.29 49.4289 24.23C49.2989 24.17 49.1339 24.14 48.9339 24.14H46.3389V28.4H48.6789C49.1289 28.4 49.5139 28.31 49.8339 28.13C50.1639 27.94 50.3989 27.7 50.5389 27.41L50.2689 29H44.6139ZM53.4837 19.28C53.0437 19.28 52.6787 19.365 52.3887 19.535C52.0987 19.705 51.8887 19.92 51.7587 20.18L51.9687 18.68H59.0787L59.2887 20.18C59.1587 19.92 58.9487 19.705 58.6587 19.535C58.3687 19.365 58.0037 19.28 57.5637 19.28H56.0637V27.605C56.0637 28.005 56.1137 28.31 56.2137 28.52C56.3137 28.73 56.4237 28.87 56.5437 28.94C56.6637 29.01 56.7237 29.03 56.7237 29H54.3387C54.3387 29.03 54.3987 29.01 54.5187 28.94C54.6387 28.87 54.7437 28.735 54.8337 28.535C54.9337 28.325 54.9837 28.015 54.9837 27.605V19.28H53.4837ZM60.3829 23.96C60.3829 22.9 60.6079 21.955 61.0579 21.125C61.5179 20.295 62.1579 19.65 62.9779 19.19C63.8079 18.73 64.7629 18.5 65.8429 18.5C66.7429 18.5 67.5829 18.7 68.3629 19.1C69.1529 19.49 69.7829 20.08 70.2529 20.87C70.7329 21.66 70.9729 22.61 70.9729 23.72C70.9729 24.78 70.7429 25.725 70.2829 26.555C69.8329 27.385 69.1929 28.03 68.3629 28.49C67.5429 28.95 66.5929 29.18 65.5129 29.18C64.6129 29.18 63.7679 28.985 62.9779 28.595C62.1979 28.195 61.5679 27.6 61.0879 26.81C60.6179 26.02 60.3829 25.07 60.3829 23.96ZM69.7729 23.945C69.7729 23.035 69.5829 22.215 69.2029 21.485C68.8329 20.745 68.3179 20.17 67.6579 19.76C67.0079 19.34 66.2729 19.13 65.4529 19.13C64.7029 19.13 64.0329 19.32 63.4429 19.7C62.8629 20.08 62.4079 20.62 62.0779 21.32C61.7479 22.01 61.5829 22.815 61.5829 23.735C61.5829 24.645 61.7679 25.47 62.1379 26.21C62.5179 26.94 63.0329 27.515 63.6829 27.935C64.3429 28.345 65.0829 28.55 65.9029 28.55C66.6529 28.55 67.3179 28.36 67.8979 27.98C68.4879 27.6 68.9479 27.065 69.2779 26.375C69.6079 25.675 69.7729 24.865 69.7729 23.945ZM73.6182 20.075C73.6182 19.675 73.5682 19.375 73.4682 19.175C73.3782 18.965 73.2732 18.825 73.1532 18.755C73.0332 18.685 72.9732 18.66 72.9732 18.68H75.3582C75.3582 18.66 75.2982 18.685 75.1782 18.755C75.0582 18.825 74.9482 18.965 74.8482 19.175C74.7482 19.375 74.6982 19.675 74.6982 20.075V28.4H77.1582C77.6082 28.4 77.9932 28.31 78.3132 28.13C78.6432 27.94 78.8782 27.7 79.0182 27.41L78.7482 29H72.9732C72.9732 29.03 73.0332 29.01 73.1532 28.94C73.2732 28.86 73.3782 28.71 73.4682 28.49C73.5682 28.26 73.6182 27.93 73.6182 27.5V20.075ZM80.0118 23.96C80.0118 22.9 80.2368 21.955 80.6868 21.125C81.1468 20.295 81.7868 19.65 82.6068 19.19C83.4368 18.73 84.3918 18.5 85.4718 18.5C86.3718 18.5 87.2118 18.7 87.9918 19.1C88.7818 19.49 89.4118 20.08 89.8818 20.87C90.3618 21.66 90.6018 22.61 90.6018 23.72C90.6018 24.78 90.3718 25.725 89.9118 26.555C89.4618 27.385 88.8218 28.03 87.9918 28.49C87.1718 28.95 86.2218 29.18 85.1418 29.18C84.2418 29.18 83.3968 28.985 82.6068 28.595C81.8268 28.195 81.1968 27.6 80.7168 26.81C80.2468 26.02 80.0118 25.07 80.0118 23.96ZM89.4018 23.945C89.4018 23.035 89.2118 22.215 88.8318 21.485C88.4618 20.745 87.9468 20.17 87.2868 19.76C86.6368 19.34 85.9018 19.13 85.0818 19.13C84.3318 19.13 83.6618 19.32 83.0718 19.7C82.4918 20.08 82.0368 20.62 81.7068 21.32C81.3768 22.01 81.2118 22.815 81.2118 23.735C81.2118 24.645 81.3968 25.47 81.7668 26.21C82.1468 26.94 82.6618 27.515 83.3118 27.935C83.9718 28.345 84.7118 28.55 85.5318 28.55C86.2818 28.55 86.9468 28.36 87.5268 27.98C88.1168 27.6 88.5768 27.065 88.9068 26.375C89.2368 25.675 89.4018 24.865 89.4018 23.945ZM97.6121 29.165C96.6621 29.165 95.7821 28.965 94.9721 28.565C94.1621 28.165 93.5121 27.565 93.0221 26.765C92.5321 25.965 92.2871 24.99 92.2871 23.84C92.2871 22.82 92.5171 21.905 92.9771 21.095C93.4471 20.285 94.1021 19.65 94.9421 19.19C95.7921 18.73 96.7671 18.5 97.8671 18.5C98.5671 18.5 99.1971 18.58 99.7571 18.74C100.327 18.9 100.777 19.075 101.107 19.265V20.93C100.797 20.39 100.332 19.955 99.7121 19.625C99.1021 19.295 98.4771 19.13 97.8371 19.13C96.9471 19.13 96.1721 19.32 95.5121 19.7C94.8621 20.07 94.3621 20.6 94.0121 21.29C93.6621 21.98 93.4871 22.79 93.4871 23.72C93.4871 24.73 93.6871 25.595 94.0871 26.315C94.4971 27.035 95.0371 27.575 95.7071 27.935C96.3771 28.295 97.1071 28.475 97.8971 28.475C98.2571 28.475 98.6271 28.435 99.0071 28.355C99.3971 28.265 99.7571 28.14 100.087 27.98V25.505C100.087 25.195 100.037 24.955 99.9371 24.785C99.8371 24.605 99.7271 24.48 99.6071 24.41C99.4871 24.33 99.4271 24.3 99.4271 24.32H101.827C101.827 24.3 101.767 24.32 101.647 24.38C101.527 24.44 101.417 24.555 101.317 24.725C101.217 24.885 101.167 25.115 101.167 25.415V28.145C100.637 28.475 100.062 28.73 99.4421 28.91C98.8321 29.08 98.2221 29.165 97.6121 29.165ZM111.336 18.68C111.236 18.7 111.076 18.81 110.856 19.01C110.636 19.21 110.371 19.58 110.061 20.12L107.466 24.575V27.605C107.466 28.115 107.536 28.47 107.676 28.67C107.816 28.87 107.946 28.98 108.066 29H105.786C105.906 28.98 106.036 28.875 106.176 28.685C106.316 28.485 106.386 28.125 106.386 27.605V24.56L103.821 20.105C103.521 19.585 103.261 19.23 103.041 19.04C102.821 18.84 102.646 18.72 102.516 18.68H105.036C104.786 18.73 104.661 18.89 104.661 19.16C104.661 19.25 104.691 19.36 104.751 19.49C104.811 19.61 104.906 19.785 105.036 20.015L107.211 23.84L109.386 20.075C109.556 19.795 109.641 19.51 109.641 19.22C109.641 19.03 109.581 18.9 109.461 18.83C109.351 18.75 109.241 18.7 109.131 18.68H111.336Z" fill="white"/>
</svg>
