<svg width="20" height="17" viewBox="0 0 20 17" fill="none" xmlns="http://www.w3.org/2000/svg">
<path d="M18.2422 2.02539H1.75782C1.48723 2.02539 1.23391 2.08194 1.00473 2.17514L9.96094 9.78792L11.9683 8.14811C11.9683 8.14811 11.9685 8.14795 11.9685 8.14788C11.9686 8.14781 11.9687 8.14775 11.9687 8.14775L18.9955 2.17527C18.7663 2.082 18.5129 2.02539 18.2422 2.02539Z" fill="white"/>
<path d="M19.8241 2.87964L13.2115 8.50006L19.8238 14.1206C19.9335 13.9258 20 13.7105 20 13.4805V3.51953C20 3.28966 19.9336 3.07437 19.8241 2.87964Z" fill="white"/>
<path d="M0.176172 2.87939C0.0665234 3.0742 0 3.28952 0 3.51952V13.4805C0 13.7103 0.0664453 13.9257 0.176016 14.1204L6.78863 8.49999L0.176172 2.87939Z" fill="white"/>
<path d="M12.3829 9.20441L10.3752 10.8444C10.2608 10.9417 10.1109 10.9903 9.96098 10.9903C9.8111 10.9903 9.66113 10.9417 9.54672 10.8444L7.61719 9.20435L1.00446 14.8248C1.23367 14.9181 1.48715 14.9747 1.75781 14.9747H18.2422C18.5128 14.9747 18.7661 14.9181 18.9953 14.8249L12.3829 9.20441Z" fill="white"/>
</svg>
