<svg width="19" height="19" viewBox="0 0 19 19" fill="none" xmlns="http://www.w3.org/2000/svg">
<path d="M13.7354 0H5.26464C4.55892 0 3.98132 0.577057 3.98132 1.28331V17.7161C3.98132 18.4224 4.55892 19 5.26464 19H13.7354C14.4411 19 15.0187 18.4235 15.0187 17.7167V1.28331C15.0187 0.577057 14.4411 0 13.7354 0ZM8.14504 0.925029H10.855C10.9408 0.925029 11.0102 0.994514 11.0102 1.08083C11.0102 1.1666 10.9408 1.23609 10.855 1.23609H8.14504C8.05927 1.23609 7.98978 1.1666 7.98978 1.08083C7.98978 0.994514 8.05927 0.925029 8.14504 0.925029ZM9.50001 18.3583C9.14552 18.3583 8.85835 18.0712 8.85835 17.7161C8.85835 17.3611 9.14552 17.0745 9.50001 17.0745C9.8545 17.0745 10.1417 17.3611 10.1417 17.7161C10.1417 18.0712 9.8545 18.3583 9.50001 18.3583ZM14.1257 16.625H4.87432V2.03517H14.1257V16.625Z" fill="white"/>
</svg>
